Coordinates
version=1
nRows=14
nColumns=63
inDegrees=yes

Units are S.I. units (second, meters, Newtons, ...)
If the header above contains a line with 'inDegrees', this indicates whether rotational values are in degrees (yes) or radians (no).

endheader
time	pelvis_tilt	pelvis_list	pelvis_rotation	pelvis_tx	pelvis_ty	pelvis_tz	hip_flexion_r	hip_adduction_r	hip_rotation_r	knee_angle_r	knee_angle_r_beta	ankle_angle_r	subtalar_angle_r	mtp_angle_r	hip_flexion_l	hip_adduction_l	hip_rotation_l	knee_angle_l	knee_angle_l_beta	ankle_angle_l	subtalar_angle_l	mtp_angle_l	L5_S1_Flex_Ext	L5_S1_Lat_Bending	L5_S1_axial_rotation	L4_L5_Flex_Ext	L4_L5_Lat_Bending	L4_L5_axial_rotation	L3_L4_Flex_Ext	L3_L4_Lat_Bending	L3_L4_axial_rotation	L2_L3_Flex_Ext	L2_L3_Lat_Bending	L2_L3_axial_rotation	L1_L2_Flex_Ext	L1_L2_Lat_Bending	L1_L2_axial_rotation	L1_T12_Flex_Ext	L1_T12_Lat_Bending	L1_T12_axial_rotation	Abs_r3	Abs_r2	Abs_r1	Abs_t1	Abs_t2	neck_flexion	neck_bending	neck_rotation	arm_flex_r	arm_add_r	arm_rot_r	elbow_flex_r	pro_sup_r	wrist_flex_r	wrist_dev_r	arm_flex_l	arm_add_l	arm_rot_l	elbow_flex_l	pro_sup_l	wrist_flex_l	wrist_dev_l
2.133333	-2.369745	-5.722469	97.546287	0.194247	0.470479	1.017534	8.321359	-1.278065	-13.766992	4.712799	0.082254	37.876120	16.851305	0.000000	8.983566	2.539339	15.705159	2.199847	0.038395	30.025936	-14.622790	0.000000	-0.022653	-1.132028	-0.064854	-0.042069	-1.505597	-0.068907	-0.037217	-2.752413	-0.068907	-0.025890	-2.752413	-0.056747	-0.021036	-2.308431	-0.052694	-0.012944	-1.753511	-0.048640	-0.161809	-12.805726	-0.360697	0.000000	0.000000	28.108524	-3.955444	-16.971698	12.058611	-9.970618	114.121912	10.148809	3.637664	-5.610124	-11.739252	12.456433	-23.466110	138.133491	2.230290	5.236662	-3.155857	-9.104180
2.150000	-2.150834	-5.680471	97.994018	0.194158	0.470365	1.017075	8.113436	-1.026917	-14.009870	4.440602	0.077503	37.753572	16.713462	0.000000	8.791033	2.303605	16.293950	1.818946	0.031747	29.970080	-14.706770	0.000000	-0.020011	-1.122500	-0.133286	-0.037163	-1.492925	-0.141616	-0.032876	-2.729246	-0.141616	-0.022871	-2.729246	-0.116625	-0.018582	-2.289001	-0.108295	-0.011434	-1.738752	-0.099964	-0.142937	-12.697941	-0.741297	0.000000	0.000000	28.102766	-4.082982	-17.110834	11.931274	-9.890043	115.146656	9.948164	3.633917	-5.734276	-11.196883	12.617779	-23.427370	139.317964	2.146959	6.057437	-3.788961	-8.655795
2.166667	-1.895265	-5.628357	98.503778	0.193901	0.470316	1.016822	7.920485	-0.755974	-14.349269	4.207904	0.073442	37.599032	16.581863	0.000000	8.640517	2.050309	16.942092	1.497785	0.026141	29.932953	-14.796062	0.000000	-0.020963	-1.105971	-0.212017	-0.038930	-1.470941	-0.225268	-0.034440	-2.689057	-0.225268	-0.023958	-2.689057	-0.185515	-0.019466	-2.255295	-0.172264	-0.011978	-1.713148	-0.159013	-0.149735	-12.510961	-1.179173	0.000000	0.000000	28.070393	-4.224509	-17.163653	11.858882	-9.836501	116.194570	9.731833	3.588539	-5.770007	-10.654214	12.908841	-23.303880	140.722896	2.029950	6.904102	-4.387728	-8.068613
2.183333	-1.647030	-5.595258	99.028986	0.193563	0.470305	1.016722	7.760541	-0.505318	-14.719738	3.998088	0.069780	37.413372	16.458909	0.000000	8.555869	1.821229	17.592122	1.247507	0.021773	29.904163	-14.894472	0.000000	-0.021510	-1.089296	-0.293772	-0.039947	-1.448763	-0.312133	-0.035339	-2.648513	-0.312133	-0.024584	-2.648513	-0.257051	-0.019974	-2.221291	-0.238690	-0.012291	-1.687319	-0.220329	-0.153645	-12.322329	-1.633873	0.000000	0.000000	28.014880	-4.364336	-17.201884	11.825372	-9.796000	117.123663	9.528080	3.469268	-5.681036	-10.198932	13.278969	-23.143640	142.234543	1.872090	7.579647	-4.843054	-7.518660
2.200000	-1.388965	-5.573981	99.563296	0.193141	0.470346	1.016792	7.643090	-0.262750	-15.176303	3.849861	0.067193	37.204387	16.367323	0.000000	8.537923	1.598482	18.237700	1.085338	0.018943	29.893210	-14.983187	0.000000	-0.023348	-1.069663	-0.381015	-0.043360	-1.422651	-0.404828	-0.038359	-2.600778	-0.404828	-0.026685	-2.600778	-0.333388	-0.021681	-2.181256	-0.309575	-0.013341	-1.656907	-0.285761	-0.166776	-12.100237	-2.119091	0.000000	0.000000	27.950375	-4.482748	-17.135096	11.856159	-9.779828	117.885046	9.361758	3.326005	-5.510768	-9.793489	13.706017	-22.943068	143.644017	1.693445	8.101678	-5.097054	-6.921527
2.216667	-1.168809	-5.567824	100.040300	0.192776	0.470448	1.016961	7.558950	-0.061455	-15.616323	3.744529	0.065354	36.985440	16.283080	0.000000	8.541871	1.412131	18.806874	0.939710	0.016401	29.850684	-15.079798	0.000000	-0.026747	-1.053991	-0.462378	-0.049671	-1.401808	-0.491277	-0.043942	-2.562674	-0.491277	-0.030569	-2.562674	-0.404581	-0.024837	-2.149299	-0.375682	-0.015283	-1.632632	-0.346784	-0.191049	-11.922960	-2.571609	0.000000	0.000000	27.880442	-4.597336	-17.052755	11.925079	-9.774639	118.218175	9.270591	3.215146	-5.257163	-9.505077	14.154773	-22.747416	144.761265	1.513142	8.467748	-5.210126	-6.417432
2.233333	-0.978478	-5.582786	100.461602	0.192430	0.470590	1.017222	7.527575	0.096904	-16.067451	3.718208	0.064895	36.768601	16.222119	0.000000	8.604542	1.263439	19.303595	0.878740	0.015337	29.821617	-15.178186	0.000000	-0.030359	-1.040232	-0.538173	-0.056380	-1.383508	-0.571809	-0.049877	-2.529219	-0.571809	-0.034698	-2.529219	-0.470901	-0.028192	-2.121240	-0.437265	-0.017347	-1.611319	-0.403630	-0.216853	-11.767309	-2.993155	0.000000	0.000000	27.813949	-4.684093	-16.846106	12.037980	-9.786510	118.303909	9.235148	3.113118	-4.939730	-9.340729	14.613304	-22.546446	145.687116	1.321647	8.632707	-5.130042	-5.938680
2.250000	-0.815979	-5.619708	100.833349	0.192106	0.470759	1.017565	7.534295	0.217374	-16.527770	3.736162	0.065208	36.560946	16.192229	0.000000	8.727362	1.156489	19.722740	0.904081	0.015779	29.794919	-15.269480	0.000000	-0.034046	-1.028489	-0.611383	-0.063227	-1.367890	-0.649594	-0.055935	-2.500667	-0.649594	-0.038912	-2.500667	-0.534960	-0.031615	-2.097294	-0.496749	-0.019454	-1.593129	-0.458537	-0.243189	-11.634468	-3.400328	0.000000	0.000000	27.750213	-4.738452	-16.536479	12.183903	-9.807469	118.090580	9.249976	3.049733	-4.576505	-9.300845	15.053477	-22.358455	146.121251	1.167772	8.632049	-4.955819	-5.602847
2.266667	-0.697408	-5.679993	101.142206	0.191834	0.470947	1.017864	7.577124	0.287839	-16.989501	3.808310	0.066468	36.379252	16.181882	0.000000	8.838739	1.083914	20.074620	0.883323	0.015417	29.752529	-15.330399	0.000000	-0.035301	-1.021330	-0.677188	-0.065558	-1.358369	-0.719512	-0.057996	-2.483263	-0.719512	-0.040346	-2.483263	-0.592540	-0.032781	-2.082697	-0.550215	-0.020171	-1.582041	-0.507891	-0.252153	-11.553493	-3.766317	0.000000	0.000000	27.692050	-4.757336	-16.176435	12.340216	-9.818245	117.657964	9.296422	3.023750	-4.213374	-9.282574	15.466719	-22.190012	146.223722	1.031794	8.462179	-4.670737	-5.333760
2.283333	-0.619493	-5.748285	101.369617	0.191656	0.471154	1.018194	7.645399	0.317570	-17.410392	3.925849	0.068519	36.226172	16.190625	0.000000	8.976786	1.052743	20.321171	0.924912	0.016143	29.705494	-15.390728	0.000000	-0.037812	-1.017859	-0.729624	-0.070220	-1.353752	-0.775225	-0.062121	-2.474822	-0.775225	-0.043215	-2.474822	-0.638421	-0.035112	-2.075617	-0.592819	-0.021606	-1.576663	-0.547218	-0.270084	-11.514221	-4.057948	0.000000	0.000000	27.640619	-4.755649	-15.766956	12.513542	-9.825800	117.107119	9.357853	2.967235	-3.815325	-9.339251	15.875512	-22.041077	145.995163	0.929051	8.115540	-4.297000	-5.181432
2.300000	-0.572573	-5.831295	101.528357	0.191553	0.471343	1.018610	7.758095	0.310499	-17.805776	4.100508	0.071567	36.104821	16.246226	0.000000	9.192380	1.067836	20.435715	1.107395	0.019328	29.682081	-15.437148	0.000000	-0.040231	-1.016697	-0.771780	-0.074714	-1.352206	-0.820016	-0.066096	-2.471996	-0.820016	-0.045981	-2.471996	-0.675307	-0.037359	-2.073248	-0.627071	-0.022988	-1.574863	-0.578835	-0.287369	-11.501074	-4.292408	0.000000	0.000000	27.599214	-4.718234	-15.257908	12.693127	-9.858636	116.286595	9.480931	2.945098	-3.375712	-9.520956	16.266952	-21.908200	145.336488	0.858498	7.622246	-3.809188	-5.170070
2.316667	-0.554783	-5.918507	101.641886	0.191506	0.471522	1.019048	7.883810	0.272497	-18.188145	4.296651	0.074991	36.015268	16.331967	0.000000	9.454431	1.122550	20.453833	1.394130	0.024332	29.678028	-15.434256	0.000000	-0.043555	-1.019015	-0.803618	-0.080887	-1.355290	-0.853844	-0.071557	-2.477633	-0.853844	-0.049779	-2.477633	-0.703165	-0.040445	-2.077976	-0.652939	-0.024888	-1.578454	-0.602713	-0.311111	-11.527303	-4.469480	0.000000	0.000000	27.564479	-4.681771	-14.819444	12.870132	-9.895410	115.349374	9.634260	2.954272	-2.954936	-9.738887	16.650451	-21.799400	144.305070	0.842163	7.035332	-3.271346	-5.277198
2.333333	-0.556831	-6.012919	101.716457	0.191516	0.471671	1.019506	8.028044	0.213876	-18.544851	4.510721	0.078727	35.951361	16.442485	0.000000	9.786871	1.214181	20.428308	1.824193	0.031838	29.680715	-15.469706	0.000000	-0.046228	-1.023503	-0.829214	-0.085849	-1.361258	-0.881040	-0.075947	-2.488544	-0.881040	-0.052834	-2.488544	-0.725562	-0.042927	-2.087126	-0.673736	-0.026415	-1.585405	-0.621911	-0.330200	-11.578065	-4.611840	0.000000	0.000000	27.540094	-4.629731	-14.405526	13.036613	-9.950807	114.187654	9.854097	3.046982	-2.574317	-10.032793	16.996531	-21.713719	142.922816	0.864025	6.349103	-2.662070	-5.489477
2.350000	-0.569559	-6.113134	101.760151	0.191570	0.471786	1.019957	8.183266	0.146124	-18.872464	4.726452	0.082492	35.910039	16.575171	0.000000	10.189967	1.334063	20.343452	2.402104	0.041925	29.707397	-15.506113	0.000000	-0.047445	-1.029001	-0.851381	-0.088109	-1.368571	-0.904592	-0.077947	-2.501913	-0.904592	-0.054224	-2.501913	-0.744958	-0.044057	-2.098338	-0.691747	-0.027110	-1.593922	-0.638535	-0.338892	-11.640263	-4.735124	0.000000	0.000000	27.526803	-4.578976	-14.040283	13.185799	-10.017315	112.860802	10.120451	3.196759	-2.230554	-10.391919	17.287934	-21.649025	141.301259	0.915924	5.550554	-2.004324	-5.780014
